<?xml version="1.0" encoding="UTF-8" standalone="no"?>
<!-- Created with Inkscape (http://www.inkscape.org/) -->

<svg
   width="92.073463"
   height="85.48262"
   viewBox="0 0 24.361103 22.617276"
   version="1.1"
   id="svg1"
   xmlns="http://www.w3.org/2000/svg"
   xmlns:svg="http://www.w3.org/2000/svg">
  <defs
     id="defs1" />
  <g
     id="layer1"
     transform="translate(-161.39574,-134.67308)">
    <path
       id="path839-0-0-2-3"
       style="fill:#000000;fill-opacity:1;stroke-width:0.0476144"
       d="M 173.56864 134.6736 C 161.61436 134.67359 162.47768 134.65227 162.01792 134.96815 C 161.75783 135.14701 161.50112 135.53228 161.43553 135.84045 C 161.39563 136.00374 161.39574 138.57083 161.39574 143.98259 L 161.41228 151.8865 L 161.5301 152.12473 C 161.68093 152.42923 161.997 152.74584 162.28251 152.87817 C 162.50659 152.97978 162.51087 152.97961 166.7334 152.99444 C 169.05745 153.00244 170.95795 153.01962 170.95795 153.03992 C 170.95795 153.05862 170.68211 153.5779 170.34713 154.19333 L 169.73838 155.31265 L 169.07434 155.33693 C 168.32608 155.36623 168.14683 155.42306 167.9142 155.70487 C 167.59936 156.08906 167.62655 156.62264 167.98035 156.97611 C 168.0875 157.08358 168.24903 157.20029 168.34054 157.22571 L 168.34054 157.22519 C 168.57334 157.30509 178.3794 157.31356 178.64895 157.23966 C 179.59301 156.9812 179.5803 155.65266 178.6288 155.38809 C 178.5338 155.35629 178.19766 155.33693 177.88362 155.33693 L 177.31208 155.33693 L 176.71677 154.23106 C 176.38953 153.62303 176.10595 153.10223 176.10595 153.06679 C 176.09375 153.01949 176.99896 153.00904 180.36926 152.99444 C 184.64384 152.98144 184.64566 152.98128 184.86924 152.87817 C 185.155 152.74641 185.47132 152.42923 185.62165 152.12473 L 185.73999 151.8865 L 185.75498 143.98259 C 185.76298 138.54459 185.7468 136.00254 185.7157 135.83477 C 185.6481 135.50933 185.43828 135.19154 185.15863 134.98882 C 184.6917 134.64858 185.58533 134.67359 173.57174 134.6736 L 173.56864 134.6736 z M 163.43644 136.71843 L 173.57743 136.71843 L 183.71892 136.71843 L 183.71892 143.09892 L 183.71892 149.47941 L 173.57743 149.47941 L 163.43644 149.47941 L 163.43644 143.09892 L 163.43644 136.71843 z M 173.57381 150.43232 L 173.57381 150.43439 C 173.71461 150.4339 173.85562 150.46386 173.98257 150.52586 C 174.59035 150.82034 174.65283 151.71348 174.09109 152.08545 L 174.09057 152.08545 C 173.826 152.25771 173.4383 152.28087 173.15678 152.13765 C 172.5644 151.83633 172.51108 150.94867 173.06376 150.58322 C 173.21401 150.48402 173.39316 150.43264 173.57381 150.43232 z " />
  </g>
</svg>
