<?xml version="1.0" encoding="UTF-8" standalone="no"?>
<!-- Created with Inkscape (http://www.inkscape.org/) -->

<svg
   width="80.049713"
   height="50.44698"
   viewBox="0 0 21.179819 13.34743"
   version="1.1"
   id="svg1"
   xmlns="http://www.w3.org/2000/svg"
   xmlns:svg="http://www.w3.org/2000/svg">
  <defs
     id="defs1" />
  <g
     id="layer1"
     transform="translate(-271.72706,-154.5168)">
    <path
       style="fill:#000000;stroke-width:0.0414481"
       d="m 275.7721,167.56425 c -0.0905,-0.16525 -0.70931,-1.32638 -1.37494,-2.58016 -0.66564,-1.25385 -1.23683,-2.32161 -1.26918,-2.37286 -0.053,-0.083 -0.0927,-0.0933 -0.36561,-0.0933 -0.38362,0 -0.48646,-0.075 -0.70124,-0.50935 -0.35168,-0.71175 -0.42771,-1.46188 -0.21854,-2.15563 0.14398,-0.47708 0.3168,-0.81344 0.50169,-0.97567 l 0.14928,-0.13111 0.73424,-8e-5 c 1.18386,0 2.0906,-0.0817 3.24913,-0.29211 2.85654,-0.51872 6.15635,-1.88112 8.74865,-3.61198 l 0.48702,-0.3252 v 6.1144 c 0,3.36296 -0.008,6.11439 -0.0179,6.11439 -0.009,0 -0.16346,-0.10014 -0.3419,-0.22253 -1.69232,-1.16064 -4.09721,-2.32585 -6.21022,-3.00892 -1.01324,-0.32756 -2.79552,-0.76357 -2.85948,-0.69961 -0.01,0.01 0.40057,1.14459 0.91277,2.52076 0.5122,1.37632 0.93127,2.50845 0.93127,2.51594 0,0.008 -0.49297,0.013 -1.09546,0.013 h -1.09553 z m 15.26378,-1.99437 c -0.0701,-0.031 -0.41499,-0.22441 -0.76684,-0.42852 -0.35176,-0.20428 -0.97143,-0.5637 -1.37697,-0.7987 -0.40554,-0.23508 -0.77572,-0.47602 -0.82266,-0.53542 -0.1201,-0.15221 -0.0869,-0.44131 0.066,-0.57266 0.12898,-0.11098 0.27622,-0.1549 0.40627,-0.12125 0.17454,0.0448 2.91122,1.64563 3.0257,1.76948 0.32626,0.35299 -0.087,0.88743 -0.53127,0.68707 z m -4.45288,-4.92239 v -1.74609 l 0.2011,0.0196 c 0.62807,0.0603 1.18387,0.67688 1.30275,1.44518 0.10797,0.69685 -0.21405,1.45643 -0.76471,1.80404 -0.14366,0.0907 -0.55124,0.22367 -0.68568,0.22367 -0.0424,0 -0.053,-0.34818 -0.053,-1.74618 z m 2.45549,0.32341 c -0.21169,-0.11758 -0.29423,-0.40766 -0.17804,-0.62497 0.12043,-0.22498 0.18073,-0.23199 1.989,-0.23199 1.36655,0 1.68922,0.0106 1.80859,0.0611 0.30866,0.12898 0.33677,0.59319 0.0473,0.77009 -0.12581,0.0766 -0.21935,0.0807 -1.85259,0.079 -1.29982,0 -1.74292,-0.0138 -1.81365,-0.053 z m -0.82966,-3.01006 c -0.075,-0.0473 -0.15547,-0.1364 -0.1795,-0.19914 -0.0554,-0.14284 -0.0212,-0.36961 0.0709,-0.47073 0.11407,-0.12605 2.94959,-1.74007 3.09504,-1.76182 0.36073,-0.0538 0.62799,0.41426 0.40122,0.70262 -0.0893,0.11359 -0.20876,0.18668 -1.90458,1.16651 -0.63508,0.36692 -1.11477,0.61805 -1.20195,0.62913 -0.0997,0.0122 -0.18758,-0.008 -0.28079,-0.0668 z"
       id="path14187" />
  </g>
</svg>
