<?xml version="1.0" encoding="UTF-8" standalone="no"?>
<!-- Created with Inkscape (http://www.inkscape.org/) -->

<svg
   width="91.489464"
   height="89.170059"
   viewBox="0 0 24.206587 23.592911"
   version="1.1"
   id="svg1"
   xmlns="http://www.w3.org/2000/svg"
   xmlns:svg="http://www.w3.org/2000/svg">
  <defs
     id="defs1" />
  <g
     id="layer1"
     transform="translate(-18.256241,-192.08758)">
    <path
       style="fill:#000000;stroke-width:0.0872535"
       d="m 36.85974,212.47569 c -3.53269,-3.52789 -3.502216,-3.48788 -3.147358,-4.13559 l 0.176003,-0.32128 -0.796984,-0.79365 c -0.438296,-0.43658 -0.825421,-0.79364 -0.860296,-0.79364 -0.03504,0 -0.308983,0.19947 -0.609085,0.4431 -0.633773,0.51465 -2.213319,1.30846 -3.032548,1.5239 -0.353636,0.0931 -1.043388,0.16451 -1.832387,0.18985 -1.155427,0.0375 -1.344467,0.0204 -2.181215,-0.18953 -4.704169,-1.18166 -7.388297,-5.9938 -5.915494,-10.60548 0.68079,-2.13184 2.327314,-3.98582 4.383698,-4.93599 4.728777,-2.18488 10.253805,0.47325 11.529256,5.54678 0.211122,0.84026 0.226686,1.02098 0.187003,2.1813 -0.06111,1.79491 -0.372621,2.83723 -1.261273,4.22342 l -0.386147,0.60224 0.853533,0.85671 c 0.821021,0.8242 0.859807,0.85101 1.019432,0.70654 0.109594,-0.0992 0.311509,-0.15025 0.594092,-0.15025 h 0.428111 l 3.227374,3.23087 3.227373,3.23088 v 0.42844 c 0,0.42265 -0.0098,0.43919 -0.768709,1.19739 -0.758035,0.75795 -0.774821,0.76879 -1.196984,0.76879 h -0.428274 z m -8.324372,-4.98562 c 2.689831,-0.80741 4.691376,-2.95261 5.238452,-5.61384 0.826237,-4.02069 -1.747726,-7.9313 -5.767928,-8.76267 -0.502424,-0.10389 -0.97535,-0.1298 -1.814868,-0.0994 -0.979343,0.0359 -1.249214,0.079 -1.964227,0.31974 -1.154367,0.38802 -2.076754,0.95865 -2.919205,1.80615 -0.845385,0.85036 -1.421143,1.78179 -1.802075,2.91505 -0.240375,0.71509 -0.284213,0.98497 -0.319739,1.96431 -0.03096,0.83944 -0.0081,1.31244 0.09941,1.81487 0.599795,2.90005 2.807166,5.12657 5.726942,5.77664 0.822896,0.18318 2.728129,0.11791 3.523239,-0.12084 z"
       id="path2280" />
    <path
       style="fill:#000000;stroke-width:0.0346412"
       d="m 21.199057,204.18032 -0.47749,-0.4783 0.720309,-0.70124 c 0.396088,-0.38574 1.376164,-1.35653 2.177793,-2.15726 l 1.45781,-1.45594 0.626114,0.63394 0.626278,0.63393 1.588019,-1.58296 1.58802,-1.58273 -0.692441,-0.69391 -0.692523,-0.6939 h 1.844283 1.844365 v 1.84428 1.84436 l -0.667182,-0.66653 c -0.366917,-0.36659 -0.68136,-0.66644 -0.698634,-0.66644 -0.01711,0 -0.94129,0.90796 -2.053287,2.01776 -1.112078,1.10988 -2.033161,2.02183 -2.046931,2.02664 -0.01385,0.008 -0.297657,-0.26409 -0.630678,-0.5976 -0.333102,-0.33342 -0.621307,-0.60631 -0.640537,-0.60631 -0.01874,0 -0.791035,0.75616 -1.715377,1.68026 l -1.680503,1.68026 z"
       id="path2410" />
  </g>
</svg>
