<?xml version="1.0" encoding="UTF-8" standalone="no"?>
<!-- Created with Inkscape (http://www.inkscape.org/) -->

<svg
   width="92.073463"
   height="85.48262"
   viewBox="0 0 24.361103 22.617276"
   version="1.1"
   id="svg1"
   xmlns="http://www.w3.org/2000/svg"
   xmlns:svg="http://www.w3.org/2000/svg">
  <defs
     id="defs1" />
  <g
     id="layer1"
     transform="translate(-161.39574,-134.67308)">
    <path
       id="path839-0-0-2-3"
       style="fill:#000000;fill-opacity:1;stroke-width:0.0476144"
       d="m 173.57153,134.67353 c -11.95859,0 -11.09373,-0.0212 -11.55354,0.29472 -0.26009,0.17886 -0.51676,0.56386 -0.58235,0.87203 -0.0399,0.16329 -0.0399,2.73058 -0.0399,8.14234 l 0.0163,7.90392 0.11798,0.2381 c 0.15083,0.3045 0.46723,0.62122 0.75274,0.75355 0.22408,0.10161 0.22807,0.10128 4.4506,0.11611 2.32405,0.008 4.22456,0.0253 4.22456,0.0456 0,0.0187 -0.27598,0.53812 -0.61096,1.15356 l -0.60876,1.11916 -0.66408,0.0245 c -0.74826,0.0293 -0.92736,0.086 -1.15999,0.36781 -0.31485,0.38419 -0.2878,0.91783 0.066,1.2713 0.10715,0.10747 0.26905,0.22383 0.36056,0.24925 v -4.8e-4 c 0.2328,0.0799 10.03885,0.0886 10.3084,0.0147 0.94406,-0.25846 0.9311,-1.58696 -0.0204,-1.85153 -0.095,-0.0318 -0.4308,-0.0513 -0.74484,-0.0513 h -0.57152 l -0.59531,-1.10596 c -0.32724,-0.60803 -0.61088,-1.12871 -0.61088,-1.16415 -0.0122,-0.0473 0.89264,-0.0579 4.26294,-0.0725 4.27459,-0.013 4.27647,-0.013 4.50005,-0.11611 0.28576,-0.13176 0.60241,-0.44906 0.75274,-0.75356 l 0.11823,-0.23809 0.0147,-7.90392 c 0.008,-5.438 -0.008,-7.98011 -0.0391,-8.14788 -0.0676,-0.32544 -0.27761,-0.64315 -0.55726,-0.84587 -0.46698,-0.34028 0.42811,-0.31534 -11.5898,-0.31534 z m -10.13484,2.04498 h 10.14095 10.14144 v 6.38035 6.38043 h -10.14144 -10.14095 v -6.38043 z m 12.00496,2.10103 c -0.16012,0 -0.2821,0.013 -0.29717,0.0277 -0.0293,0.0301 -3.94043,8.2582 -4.02982,8.4791 h 4.9e-4 c -0.0196,0.0456 0.0798,0.0603 0.45956,0.0456 l 0.48475,-0.0155 1.99152,-4.26114 1.99152,-4.26164 -0.43104,-0.0155 c -0.0587,0 -0.11669,0 -0.16981,0 z m 1.66763,1.24587 c -0.0562,0 -0.0562,0.0807 -0.0562,0.49876 v 0.52206 l 1.61899,0.73156 c 0.89036,0.40268 1.61849,0.75722 1.61849,0.78239 0,0.0277 -0.72813,0.3908 -1.61849,0.80668 l -1.61899,0.75617 v 0.49191 -5.7e-4 c 0,0.27068 0.0138,0.49134 0.0342,0.49134 0.0187,0 0.99409,-0.4339 2.16614,-0.96411 l 2.13126,-0.96394 v -0.59531 -0.59532 l -2.08099,-0.96198 c -1.14483,-0.52972 -2.11953,-0.9734 -2.16475,-0.99328 -0.0106,0 -0.0196,-0.008 -0.0269,-0.008 z m -7.06783,0 c -0.008,5.8e-4 -0.0163,0 -0.0253,0.008 -0.0456,0.0163 -1.02,0.46356 -2.16484,0.99295 l -2.08205,0.9628 v 0.59483 0.59474 l 2.10691,0.95971 v 0 c 1.1586,0.52752 2.132,0.95563 2.16638,0.96435 0.0391,0 0.0595,-0.12198 0.0595,-0.48523 v -0.49053 l -1.61898,-0.75746 c -0.89028,-0.41703 -1.61841,-0.78371 -1.61841,-0.80888 0,-0.0277 0.72813,-0.37996 1.61841,-0.78183 l 1.61898,-0.73107 v -0.52255 c 0,-0.41776 -0.008,-0.5003 -0.0579,-0.49769 z m 3.53245,10.36903 c 0.1408,-4.9e-4 0.28185,0.0293 0.4088,0.0913 0.60778,0.29448 0.67019,1.18769 0.10845,1.55966 h -4.9e-4 c -0.26457,0.17226 -0.65219,0.19532 -0.93371,0.0521 -0.59238,-0.30132 -0.64608,-1.189 -0.0934,-1.55445 0.15025,-0.0992 0.32968,-0.1505 0.51033,-0.15082 z" />
  </g>
</svg>
