<?xml version="1.0" encoding="UTF-8" standalone="no"?>
<!-- Created with Inkscape (http://www.inkscape.org/) -->

<svg
   width="800"
   height="209.0123"
   viewBox="0 0 211.66666 55.30117"
   version="1.1"
   id="svg1"
   xmlns="http://www.w3.org/2000/svg"
   xmlns:svg="http://www.w3.org/2000/svg">
  <defs
     id="defs1" />
  <g
     id="layer1"
     transform="translate(42.862492,-132.55624)">
    <path
       style="font-size:39.9791px;line-height:1.25;font-family:Roboto;-inkscape-font-specification:Roboto;letter-spacing:0px;word-spacing:0px;fill:#3771c8;stroke-width:1.26591"
       d="m -34.208818,156.73301 h 4.054859 q 2.324129,0 3.436747,-1.21151 1.112618,-1.23624 1.112618,-3.36257 0,-0.81592 -0.27197,-1.53294 -0.24726,-0.74174 -0.766478,-1.28568 -0.519217,-0.56868 -1.335128,-0.89009 -0.791201,-0.32142 -1.879083,-0.32142 -0.766477,0 -1.508218,0.24725 -0.717018,0.22252 -1.310406,0.66757 -0.568677,0.42031 -0.939541,1.03843 -0.346153,0.61813 -0.346153,1.40931 h -8.332242 q 0,-2.2994 0.988989,-4.1043 0.989,-1.82964 2.670283,-3.0906 1.681282,-1.26097 3.857058,-1.92854 2.2005,-0.66756 4.623524,-0.66756 2.868083,0 5.241659,0.66756 2.373577,0.66757 4.054859,1.97799 1.706006,1.28568 2.645547,3.21421 0.939541,1.90381 0.939541,4.42574 0,1.23623 -0.3956,2.37357 -0.395588,1.13735 -1.112605,2.15106 -0.717031,0.98899 -1.755466,1.80491 -1.038435,0.81591 -2.299406,1.40931 2.868071,1.03844 4.499906,3.16477 1.631836,2.1016 1.631836,5.21692 0,2.52193 -1.038435,4.49991 -1.013712,1.97798 -2.818624,3.33784 -1.804912,1.35986 -4.277382,2.07688 -2.447747,0.69229 -5.31583,0.69229 -1.508206,0 -3.041135,-0.27197 -1.508218,-0.27197 -2.91753,-0.81592 -1.409312,-0.54394 -2.645547,-1.38458 -1.236235,-0.86537 -2.151053,-2.02743 -0.890094,-1.18679 -1.434035,-2.67027 -0.519218,-1.4835 -0.519218,-3.33784 h 8.381688 q 0,0.86535 0.370877,1.6071 0.370864,0.74174 0.988988,1.31041 0.642848,0.54394 1.483482,0.86537 0.840648,0.2967 1.780189,0.2967 1.137341,0 2.027423,-0.32143 0.914818,-0.34614 1.532942,-0.93954 0.618111,-0.59339 0.939541,-1.38458 0.321417,-0.7912 0.321417,-1.70602 0,-2.71971 -1.359865,-3.85706 -1.359852,-1.13734 -3.758164,-1.13734 h -4.054859 z m 46.705078,6.77459 q 0,3.90651 -0.914818,6.77458 -0.914817,2.84334 -2.5713762,4.72243 -1.6565589,1.87908 -3.9559651,2.7939 -2.2994062,0.91481 -5.06857038,0.91481 -2.79390022,0 -5.11802992,-0.91481 -2.2994062,-0.91482 -3.9559651,-2.7939 -1.6565593,-1.87909 -2.5961003,-4.72243 -0.914805,-2.86807 -0.914805,-6.77458 v -6.57679 q 0,-3.88178 0.914805,-6.74986 0.914818,-2.86807 2.5713769,-4.74716 1.6565589,-1.87908 3.9559651,-2.79388 2.2994062,-0.91482 5.09330645,-0.91482 2.76916415,0 5.06857035,0.91482 2.3241297,0.9148 3.9806886,2.79388 1.6565586,1.87909 2.5713766,4.74716 0.939541,2.86808 0.939541,6.74986 z m -8.3322537,-7.63996 q 0,-2.15105 -0.2966939,-3.60981 -0.2966939,-1.48348 -0.8406348,-2.3983 -0.5439536,-0.91482 -1.3351415,-1.31041 -0.76646455,-0.3956 -1.75545265,-0.3956 -0.98900075,0 -1.78018875,0.3956 -0.7664645,0.39559 -1.3104181,1.31041 -0.5192175,0.91482 -0.8159114,2.3983 -0.2719704,1.45876 -0.2719704,3.60981 v 8.65367 q 0,2.2005 0.2719704,3.684 0.2966939,1.48348 0.8406475,2.3983 0.5439409,0.89008 1.3351289,1.28568 0.7912006,0.3956 1.78018872,0.3956 0.96426467,0 1.73072918,-0.3956 0.791188,-0.3956 1.3351415,-1.28568 0.543941,-0.91482 0.8159114,-2.3983 0.2966939,-1.4835 0.2966939,-3.684 z M 41.102796,151.8375 q 0,2.62083 -1.310406,4.62354 -1.285694,2.0027 -3.560365,3.21422 2.571377,1.26096 4.079583,3.46146 1.508205,2.17578 1.508205,5.16748 0,2.5961 -0.939541,4.54935 -0.939528,1.92853 -2.596087,3.23895 -1.656559,1.31041 -3.955965,1.97798 -2.299407,0.64284 -4.994401,0.64284 -2.719729,0 -5.043859,-0.64284 -2.299394,-0.66757 -3.980676,-1.97798 -1.681295,-1.31042 -2.64556,-3.23895 -0.964264,-1.95325 -0.964264,-4.54935 0,-1.48348 0.3956,-2.7939 0.3956,-1.31041 1.137341,-2.3983 0.741741,-1.0879 1.780176,-1.95325 1.063172,-0.86537 2.373577,-1.48349 -2.299394,-1.21152 -3.609812,-3.21422 -1.310405,-2.00271 -1.310405,-4.62354 0,-2.47247 0.865358,-4.35155 0.890095,-1.9038 2.44776,-3.18949 1.582376,-1.28569 3.733428,-1.92854 2.17579,-0.66756 4.747154,-0.66756 2.5961,0 4.771889,0.66756 2.175776,0.64285 3.733429,1.92854 1.582388,1.28569 2.447759,3.18949 0.890082,1.87908 0.890082,4.35155 z m -7.639947,15.79913 q 0,-2.22522 -1.162065,-3.41201 -1.137342,-1.21151 -3.016424,-1.21151 -1.87907,0 -3.041135,1.21151 -1.162064,1.18679 -1.162064,3.41201 0,1.08789 0.296693,1.95325 0.321418,0.86537 0.865371,1.45877 0.568665,0.59339 1.359853,0.91481 0.7912,0.32143 1.730741,0.32143 1.85436,0 2.991688,-1.23624 1.137342,-1.23624 1.137342,-3.41202 z m -0.717018,-15.35408 q 0,-1.92853 -0.890094,-3.04115 -0.865359,-1.1126 -2.5961,-1.1126 -1.681283,0 -2.571364,1.1126 -0.865371,1.0879 -0.865371,3.04115 0,1.92853 0.890094,3.11532 0.890082,1.18679 2.620823,1.18679 1.706006,0 2.546641,-1.18679 0.865371,-1.18679 0.865371,-3.11532 z"
       id="text1-2-8"
       aria-label="308" />
    <path
       style="font-size:38.4631px;line-height:1.25;font-family:Roboto;-inkscape-font-specification:Roboto;letter-spacing:0px;word-spacing:0px;stroke-width:1.21791"
       d="m 71.348006,165.58275 q 0,2.92582 -0.59468,5.35211 -0.594679,2.40251 -1.831611,4.13898 -1.236945,1.71268 -3.116128,2.68795 -1.879184,0.9515 -4.448205,0.9515 -2.117058,0 -3.663236,-0.80877 -1.522378,-0.83256 -2.664165,-2.30736 l -0.333019,2.64038 h -7.183729 v -36.53715 h 8.016283 v 12.86888 q 1.070428,-1.21315 2.497662,-1.87919 1.427221,-0.66603 3.282632,-0.66603 2.592807,0 4.471991,0.97527 1.902969,0.97527 3.139914,2.73552 1.236932,1.73647 1.831611,4.13897 0.59468,2.37872 0.59468,5.2094 z m -8.040069,-0.49954 q 0,-1.40345 -0.166516,-2.64038 -0.14273,-1.26072 -0.59468,-2.18841 -0.428176,-0.9515 -1.213145,-1.4986 -0.784982,-0.5471 -2.0457,-0.5471 -1.427234,0 -2.354932,0.5471 -0.903913,0.52331 -1.403448,1.52238 v 10.2285 q 0.499535,0.99906 1.403448,1.52238 0.927698,0.52332 2.402505,0.52332 1.30829,0 2.093272,-0.49953 0.784981,-0.52333 1.189359,-1.42724 0.428176,-0.9277 0.547107,-2.21221 0.14273,-1.28451 0.14273,-2.83067 z m 27.141191,-5.32833 q -0.237875,-0.0238 -0.59468,-0.0476 -0.333019,-0.0476 -0.713611,-0.0713 -0.356818,-0.0238 -0.713623,-0.0476 -0.356805,-0.0238 -0.618466,-0.0238 -1.926769,0 -3.116128,0.59468 -1.189359,0.57089 -1.736467,1.78403 v 16.29424 H 74.93987 v -25.73769 h 7.516761 l 0.261661,3.30642 q 0.951484,-1.78404 2.354932,-2.7831 1.427234,-0.99905 3.282632,-0.99905 0.594679,0 1.165573,0.0713 0.594679,0.0713 1.070416,0.21409 z m 16.674832,18.48266 q -0.26166,-0.47575 -0.45196,-1.04665 -0.16652,-0.59468 -0.30924,-1.26071 -0.9277,1.16557 -2.4025,1.97434 -1.47481,0.80877 -3.78217,0.80877 -1.784038,0 -3.377788,-0.5709 -1.569951,-0.57089 -2.75931,-1.56996 -1.189359,-1.02284 -1.90297,-2.45008 -0.689837,-1.42723 -0.689837,-3.13991 0,-1.99813 0.713623,-3.56808 0.737397,-1.56995 2.212203,-2.64038 1.498592,-1.09422 3.75838,-1.66511 2.283579,-0.59468 5.399689,-0.59468 h 2.47388 v -1.35586 q 0,-1.64132 -0.71363,-2.59281 -0.71361,-0.95148 -2.35493,-0.95148 -1.37965,0 -2.11706,0.68982 -0.73739,0.68983 -0.73739,2.11706 h -8.016299 q 0,-1.78404 0.784982,-3.3302 0.808767,-1.54617 2.283574,-2.66417 1.474806,-1.118 3.544292,-1.76025 2.093271,-0.64225 4.662291,-0.64225 2.30736,0 4.2579,0.57089 1.97435,0.57088 3.40158,1.73645 1.42723,1.14179 2.23599,2.87826 0.80877,1.71268 0.80877,3.99625 v 10.53773 q 0,1.26072 0.0713,2.18842 0.0714,0.9277 0.21409,1.64132 0.14273,0.68983 0.33302,1.23693 0.21409,0.54711 0.47575,1.02286 v 0.40438 z m -5.0191,-5.23319 q 1.49859,0 2.47386,-0.64225 0.99906,-0.64225 1.42724,-1.45102 v -4.11519 h -2.52145 q -1.118,0 -1.90297,0.30924 -0.7612,0.30923 -1.23693,0.83255 -0.451966,0.52332 -0.666054,1.21315 -0.190289,0.66603 -0.190289,1.40344 0,1.09421 0.737393,1.78404 0.73741,0.66604 1.8792,0.66604 z m 23.73962,-20.50457 0.26166,3.02097 q 1.3083,-1.71267 3.1637,-2.59279 1.87919,-0.90391 4.18654,-0.90391 1.78404,0 3.25885,0.5233 1.4986,0.49954 2.56902,1.6889 1.07043,1.16557 1.64132,3.09234 0.59468,1.90297 0.59468,4.70987 v 16.19908 h -8.04008 v -16.22287 q 0,-1.16557 -0.26165,-1.90298 -0.23788,-0.7374 -0.71362,-1.16558 -0.45195,-0.42816 -1.14179,-0.57089 -0.66604,-0.1665 -1.52238,-0.1665 -1.2845,0 -2.14084,0.49952 -0.83256,0.49953 -1.35588,1.35587 v 18.17343 h -8.01628 v -25.73776 z m 19.10113,12.67858 q 0,-2.92583 0.64225,-5.35212 0.64225,-2.42629 1.90298,-4.16276 1.26072,-1.73647 3.11612,-2.68795 1.8792,-0.95148 4.35306,-0.95148 1.83161,0 3.25885,0.71361 1.42723,0.71361 2.54523,1.99812 v -13.03539 h 8.04007 v 36.53715 h -7.20752 l -0.40439,-2.75931 q -1.14178,1.49859 -2.68795,2.37872 -1.54616,0.85634 -3.59186,0.85634 -2.45008,0 -4.30549,-0.97529 -1.8554,-0.99906 -3.11612,-2.73552 -1.26073,-1.73647 -1.90298,-4.11519 -0.64225,-2.4025 -0.64225,-5.2094 z m 8.01628,0.49953 q 0,1.45102 0.1903,2.71174 0.19031,1.23694 0.64226,2.16464 0.47575,0.9277 1.23693,1.45102 0.78498,0.52331 1.92677,0.52331 1.35587,0 2.30736,-0.57088 0.95148,-0.59469 1.49859,-1.66511 v -9.80033 q -1.09422,-2.28356 -3.75838,-2.28356 -1.118,0 -1.90297,0.5233 -0.7612,0.52333 -1.23694,1.47481 -0.47574,0.92771 -0.68983,2.21222 -0.21409,1.26071 -0.21409,2.75931 z"
       id="text2-6-4"
       aria-label="brand" />
    <rect
       style="fill:#000000;stroke:none;stroke-width:12.8245;stroke-linejoin:round"
       id="rect4-6-9"
       width="211.66653"
       height="2.3531554"
       x="-42.862492"
       y="185.50426" />
    <rect
       style="fill:#000000;stroke:none;stroke-width:12.8245;stroke-linejoin:round"
       id="rect1-3"
       width="211.66653"
       height="2.3531554"
       x="-42.862492"
       y="132.55624" />
  </g>
</svg>
