<?xml version="1.0" encoding="UTF-8" standalone="no"?>
<!-- Created with Inkscape (http://www.inkscape.org/) -->

<svg
   width="800"
   height="227.12595"
   viewBox="0 0 211.66666 60.09374"
   version="1.1"
   id="svg1"
   xmlns="http://www.w3.org/2000/svg"
   xmlns:svg="http://www.w3.org/2000/svg">
  <defs
     id="defs1" />
  <g
     id="layer1"
     transform="translate(-49.47708,-118.79792)">
    <path
       style="font-size:39.9791px;line-height:1.25;font-family:Roboto;-inkscape-font-specification:Roboto;letter-spacing:0px;word-spacing:0px;fill:#3771c8;stroke-width:1.26591"
       d="m 58.130738,133.83058 h 4.054858 q 2.32413,0 3.436748,-1.21151 1.112618,-1.23625 1.112618,-3.36258 0,-0.81591 -0.271984,-1.53293 -0.247248,-0.74174 -0.766463,-1.28569 -0.519219,-0.56867 -1.33513,-0.89009 -0.7912,-0.32142 -1.879082,-0.32142 -0.766477,0 -1.508218,0.24724 -0.717018,0.22253 -1.310406,0.66757 -0.568677,0.42033 -0.939541,1.03845 -0.346153,0.61811 -0.346153,1.40931 h -8.332241 q 0,-2.2994 0.988988,-4.10432 0.988988,-1.82962 2.670283,-3.09059 1.681282,-1.26096 3.857059,-1.92853 2.200499,-0.66757 4.623522,-0.66757 2.868084,0 5.241659,0.66757 2.373577,0.66757 4.054858,1.97798 1.706007,1.28569 2.645548,3.21422 0.939541,1.90381 0.939541,4.42574 0,1.23623 -0.3956,2.37357 -0.395587,1.13734 -1.112618,2.15105 -0.717018,0.98899 -1.755452,1.8049 -1.038434,0.81593 -2.299407,1.40932 2.86807,1.03844 4.499907,3.16477 1.631833,2.10161 1.631833,5.21693 0,2.52191 -1.038434,4.4999 -1.013711,1.97798 -2.818622,3.33784 -1.804913,1.35987 -4.277384,2.07688 -2.447745,0.6923 -5.315829,0.6923 -1.508205,0 -3.041134,-0.27198 -1.508218,-0.27197 -2.91753,-0.81592 -1.409312,-0.54394 -2.645547,-1.38458 -1.236235,-0.86537 -2.151052,-2.02743 -0.890095,-1.18678 -1.434035,-2.67028 -0.519218,-1.48348 -0.519218,-3.33784 h 8.381688 q 0,0.86537 0.370876,1.60711 0.370864,0.74174 0.988988,1.31042 0.642848,0.54394 1.483482,0.86536 0.840648,0.29669 1.780189,0.29669 1.137328,0 2.027423,-0.32141 0.914818,-0.34615 1.53294,-0.93955 0.618112,-0.59338 0.939544,-1.38458 0.321415,-0.79119 0.321415,-1.70601 0,-2.71972 -1.359865,-3.85706 -1.35985,-1.13734 -3.758164,-1.13734 h -4.054858 z m 46.705072,6.77457 q 0,3.90652 -0.91481,6.77459 -0.91482,2.84335 -2.57138,4.72243 -1.65656,1.87908 -3.955967,2.7939 -2.299406,0.91482 -5.06857,0.91482 -2.793899,0 -5.118028,-0.91482 -2.299407,-0.91482 -3.955965,-2.7939 -1.656559,-1.87908 -2.5961,-4.72243 -0.914805,-2.86807 -0.914805,-6.77459 v -6.57677 q 0,-3.8818 0.914805,-6.74987 0.914818,-2.86807 2.571377,-4.74715 1.656559,-1.87908 3.955963,-2.7939 2.299406,-0.91482 5.093308,-0.91482 2.769164,0 5.06857,0.91482 2.324129,0.91482 3.980692,2.7939 1.65656,1.87908 2.57137,4.74715 0.93954,2.86807 0.93954,6.74987 z m -8.332249,-7.63994 q 0,-2.15106 -0.296696,-3.60981 -0.296693,-1.48349 -0.840634,-2.3983 -0.543954,-0.91482 -1.335141,-1.31042 -0.766466,-0.3956 -1.755452,-0.3956 -0.989002,0 -1.780191,0.3956 -0.766463,0.3956 -1.310417,1.31042 -0.519216,0.91481 -0.815912,2.3983 -0.27197,1.45875 -0.27197,3.60981 v 8.65367 q 0,2.2005 0.27197,3.68398 0.296696,1.48348 0.840648,2.3983 0.543941,0.89009 1.335129,1.28569 0.7912,0.39559 1.780188,0.39559 0.964266,0 1.73073,-0.39559 0.791189,-0.3956 1.33514,-1.28569 0.543941,-0.91482 0.815912,-2.3983 0.296696,-1.48348 0.296696,-3.68398 z m 36.938789,-4.03014 q 0,2.62083 -1.31041,4.62354 -1.28569,2.0027 -3.56036,3.21421 2.57137,1.26096 4.07958,3.46147 1.5082,2.17578 1.5082,5.16748 0,2.5961 -0.93954,4.54935 -0.93954,1.92853 -2.5961,3.23895 -1.65656,1.3104 -3.95595,1.97797 -2.29941,0.64285 -4.9944,0.64285 -2.71973,0 -5.04386,-0.64285 -2.29939,-0.66757 -3.98067,-1.97797 -1.6813,-1.31042 -2.64556,-3.23895 -0.96427,-1.95325 -0.96427,-4.54935 0,-1.4835 0.3956,-2.7939 0.3956,-1.31042 1.13734,-2.3983 0.74174,-1.0879 1.78018,-1.95327 1.06317,-0.86536 2.37358,-1.48348 -2.2994,-1.21151 -3.60982,-3.21421 -1.3104,-2.00271 -1.3104,-4.62354 0,-2.47247 0.86536,-4.35155 0.89009,-1.90381 2.44776,-3.1895 1.58237,-1.28568 3.73343,-1.92853 2.17577,-0.66757 4.74715,-0.66757 2.5961,0 4.77189,0.66757 2.17577,0.64285 3.73342,1.92853 1.58239,1.28569 2.44776,3.1895 0.89009,1.87908 0.89009,4.35155 z m -7.63995,15.79913 q 0,-2.22524 -1.16207,-3.41203 -1.13734,-1.21151 -3.01642,-1.21151 -1.87907,0 -3.04113,1.21151 -1.16207,1.18679 -1.16207,3.41203 0,1.08788 0.2967,1.95325 0.32141,0.86537 0.86537,1.45876 0.56866,0.5934 1.35985,0.91482 0.7912,0.32141 1.73074,0.32141 1.85436,0 2.99169,-1.23623 1.13734,-1.23624 1.13734,-3.41201 z m -0.71702,-15.35408 q 0,-1.92853 -0.89009,-3.04115 -0.86536,-1.11261 -2.5961,-1.11261 -1.68128,0 -2.57138,1.11261 -0.86536,1.0879 -0.86536,3.04115 0,1.92853 0.8901,3.11532 0.89008,1.18678 2.62082,1.18678 1.70601,0 2.54664,-1.18678 0.86537,-1.18679 0.86537,-3.11532 z"
       id="text1-28"
       aria-label="308" />
    <path
       style="font-size:38.4631px;line-height:1.25;font-family:Roboto;-inkscape-font-specification:Roboto;letter-spacing:0px;word-spacing:0px;stroke-width:1.21791"
       d="m 163.68759,142.6803 q 0,2.92583 -0.59468,5.35213 -0.59468,2.4025 -1.83161,4.13897 -1.23694,1.71268 -3.11613,2.68795 -1.87918,0.95149 -4.4482,0.95149 -2.11706,0 -3.66324,-0.80877 -1.52238,-0.83254 -2.66416,-2.30735 l -0.33302,2.64038 h -7.18373 v -36.53714 h 8.01628 v 12.86888 q 1.07043,-1.21315 2.49767,-1.8792 1.42722,-0.66604 3.28263,-0.66604 2.5928,0 4.47199,0.97529 1.90297,0.97527 3.13991,2.73552 1.23693,1.73647 1.83161,4.13897 0.59468,2.37872 0.59468,5.2094 z m -8.04007,-0.49952 q 0,-1.40345 -0.16651,-2.64038 -0.14272,-1.26073 -0.59468,-2.18843 -0.42817,-0.95148 -1.21315,-1.49859 -0.78498,-0.54711 -2.0457,-0.54711 -1.42723,0 -2.35493,0.54711 -0.90391,0.52332 -1.40345,1.52238 v 10.22849 q 0.49954,0.99908 1.40345,1.52238 0.9277,0.52332 2.4025,0.52332 1.30829,0 2.09328,-0.49953 0.78498,-0.52331 1.18936,-1.42722 0.42817,-0.92771 0.5471,-2.21222 0.14273,-1.2845 0.14273,-2.83068 z m 27.14119,-5.32833 q -0.23787,-0.0238 -0.59468,-0.0476 -0.33302,-0.0476 -0.71361,-0.0713 -0.35682,-0.0238 -0.71362,-0.0476 -0.35681,-0.0238 -0.61847,-0.0238 -1.92676,0 -3.11613,0.59468 -1.18936,0.57089 -1.73646,1.78404 v 16.29424 h -8.01628 v -25.73776 h 7.51676 l 0.26166,3.30642 q 0.95148,-1.78404 2.35493,-2.7831 1.42723,-0.99907 3.28263,-0.99907 0.59468,0 1.16557,0.0713 0.59468,0.0714 1.07042,0.21409 z m 16.67483,18.48265 q -0.26166,-0.47575 -0.45196,-1.04664 -0.16651,-0.59468 -0.30924,-1.26072 -0.92769,1.16557 -2.4025,1.97433 -1.47481,0.80877 -3.78217,0.80877 -1.78404,0 -3.37779,-0.57089 -1.56995,-0.5709 -2.7593,-1.56995 -1.18936,-1.02286 -1.90297,-2.45008 -0.68984,-1.42724 -0.68984,-3.13992 0,-1.99812 0.71362,-3.56808 0.7374,-1.56996 2.2122,-2.64037 1.4986,-1.09422 3.75838,-1.66511 2.28358,-0.59468 5.3997,-0.59468 h 2.47387 v -1.35588 q 0,-1.64131 -0.71362,-2.5928 -0.71361,-0.95149 -2.35493,-0.95149 -1.37965,0 -2.11706,0.68984 -0.7374,0.68982 -0.7374,2.11706 h -8.01629 q 0,-1.78404 0.78498,-3.33022 0.80876,-1.54616 2.28357,-2.66416 1.47481,-1.11799 3.54429,-1.76026 2.09327,-0.64225 4.66229,-0.64225 2.30736,0 4.25791,0.57089 1.97434,0.5709 3.40157,1.73647 1.42723,1.14179 2.23599,2.87825 0.80877,1.71269 0.80877,3.99625 v 10.53773 q 0,1.26073 0.0713,2.18843 0.0713,0.92769 0.21408,1.6413 0.14273,0.68984 0.33302,1.23695 0.21409,0.54711 0.47575,1.02284 v 0.40439 z m -5.0191,-5.23318 q 1.49859,0 2.47387,-0.64226 0.99905,-0.64226 1.42723,-1.45102 v -4.11518 h -2.52145 q -1.118,0 -1.90297,0.30923 -0.76119,0.30923 -1.23693,0.83254 -0.45196,0.52333 -0.66605,1.21316 -0.19029,0.66604 -0.19029,1.40344 0,1.09421 0.7374,1.78404 0.73741,0.66605 1.87919,0.66605 z m 23.73962,-20.50457 0.26166,3.02097 q 1.3083,-1.71268 3.1637,-2.59281 1.87919,-0.90391 4.18654,-0.90391 1.78404,0 3.25886,0.52332 1.49859,0.49954 2.56901,1.68889 1.07042,1.16558 1.64132,3.09234 0.59468,1.90298 0.59468,4.70986 v 16.19909 h -8.04008 v -16.22288 q 0,-1.16557 -0.26165,-1.90297 -0.23788,-0.73741 -0.71362,-1.16557 -0.45195,-0.42818 -1.14179,-0.57089 -0.66604,-0.16652 -1.52238,-0.16652 -1.2845,0 -2.14084,0.49953 -0.83256,0.49954 -1.35588,1.35588 v 18.17342 h -8.01628 v -25.73775 z m 19.10113,12.67857 q 0,-2.92582 0.64225,-5.35211 0.64225,-2.42629 1.90298,-4.16276 1.26072,-1.73647 3.11612,-2.68796 1.8792,-0.95149 4.35306,-0.95149 1.83161,0 3.25884,0.71362 1.42724,0.71361 2.54524,1.99812 v -13.03538 h 8.04007 v 36.53714 h -7.20752 l -0.40439,-2.75932 q -1.14177,1.49859 -2.68795,2.37872 -1.54616,0.85634 -3.59186,0.85634 -2.45008,0 -4.30549,-0.97527 -1.8554,-0.99907 -3.11612,-2.73553 -1.26073,-1.73646 -1.90298,-4.11519 -0.64225,-2.40251 -0.64225,-5.20939 z m 8.01628,0.49954 q 0,1.45102 0.1903,2.71174 0.19031,1.23693 0.64226,2.16463 0.47574,0.92771 1.23693,1.45102 0.78498,0.52332 1.92677,0.52332 1.35587,0 2.30736,-0.5709 0.95148,-0.59467 1.49859,-1.6651 v -9.80032 q -1.09422,-2.28358 -3.75838,-2.28358 -1.118,0 -1.90297,0.52332 -0.7612,0.52332 -1.23695,1.47481 -0.47573,0.9277 -0.68982,2.21221 -0.21409,1.26072 -0.21409,2.75931 z"
       id="text2-0"
       aria-label="brand" />
    <path
       style="font-size:13.7969px;line-height:1.25;font-family:Hind;-inkscape-font-specification:Hind;letter-spacing:0px;word-spacing:0px;stroke-width:0.436869"
       d="m 136.8746,174.41812 q 1.08343,0 1.83484,-0.80384 0.76889,-0.80383 0.76889,-2.56878 0,-1.67757 -0.78636,-2.46393 -0.78636,-0.78636 -1.73001,-0.78636 -1.1009,0 -1.83484,0.8912 -0.71646,0.87374 -0.71646,2.51636 0,1.43293 0.69899,2.32414 0.69899,0.89121 1.76495,0.89121 z m 2.60373,-11.23625 h 1.3805 v 12.35463 h -1.3805 v -1.31059 q -0.94364,1.4504 -2.72606,1.4504 -1.76495,0 -2.77848,-1.31061 -0.99606,-1.31061 -0.99606,-3.18041 0,-2.07949 1.06596,-3.35514 1.06596,-1.29313 2.74353,-1.29313 1.73,0 2.69111,1.48536 z m 4.00171,12.35463 v -8.85969 h 1.38049 v 8.85969 z m 0.035,-10.9916 q -0.24464,-0.26212 -0.24464,-0.64656 0,-0.38444 0.24464,-0.64657 0.26213,-0.26212 0.64657,-0.26212 0.38444,0 0.64656,0.26212 0.26213,0.26213 0.26213,0.64657 0,0.38444 -0.26213,0.64656 -0.26212,0.24465 -0.64656,0.24465 -0.38444,0 -0.64657,-0.24465 z m 7.28697,9.54121 q 0.96111,0 1.69505,-0.73394 0.7514,-0.75142 0.7514,-2.2193 0,-1.69505 -0.71646,-2.51636 -0.71646,-0.8213 -1.6601,-0.8213 -1.13585,0 -1.7999,0.90867 -0.66404,0.89122 -0.66404,2.34162 0,1.48536 0.73394,2.27172 0.73394,0.76889 1.66011,0.76889 z m 2.44645,-7.4093 h 1.38051 v 8.14323 q 0,2.02707 -1.11838,3.04061 -1.11838,1.03101 -2.88333,1.03101 -1.60768,0 -2.74353,-0.54173 v -1.38049 q 1.11838,0.64656 2.6212,0.64656 1.27566,0 2.00959,-0.68152 0.73394,-0.6815 0.73394,-2.13191 v -0.99606 q -0.87373,1.50282 -2.60372,1.50282 -1.52031,0 -2.60374,-1.11838 -1.06596,-1.11838 -1.06596,-3.1105 0,-1.97465 0.99606,-3.2503 0.99605,-1.27565 2.60374,-1.27565 1.81737,0 2.67362,1.59019 z m 3.89687,8.85969 v -8.85969 h 1.3805 v 8.85969 z m 0.035,-10.9916 q -0.24465,-0.26212 -0.24465,-0.64656 0,-0.38444 0.24465,-0.64657 0.26211,-0.26212 0.64657,-0.26212 0.38444,0 0.64656,0.26212 0.26212,0.26213 0.26212,0.64657 0,0.38444 -0.26212,0.64656 -0.26212,0.24465 -0.64656,0.24465 -0.38446,0 -0.64657,-0.24465 z m 5.87151,3.25031 v 5.18999 q 0,1.41544 1.32807,1.41544 0.68152,0 1.20576,-0.4019 v 1.31059 q -0.57667,0.31455 -1.29313,0.31455 -2.62121,0 -2.62121,-2.67363 v -5.15504 h -1.41545 v -1.1184 h 1.41545 V 164.475 h 1.38051 v 2.20181 h 2.44645 v 1.1184 z m 9.31402,3.65221 h -1.53778 q -1.11838,0 -1.67757,0.43687 -0.55919,0.43686 -0.55919,1.10091 0,0.66404 0.43686,1.08343 0.43687,0.40192 1.27565,0.40192 0.94365,0 1.50284,-0.52425 0.55919,-0.54171 0.55919,-1.36302 z m -4.57838,-2.91827 v -1.38051 q 0.99605,-0.61162 2.62121,-0.61162 3.33767,0 3.33767,3.3901 v 5.60938 h -1.36302 v -1.04847 q -0.68152,1.13585 -2.48141,1.13585 -1.24071,0 -2.00961,-0.73393 -0.7514,-0.73394 -0.7514,-1.85232 0,-1.27567 0.9611,-1.97465 0.97859,-0.71647 2.65616,-0.71647 h 1.60768 v -0.45435 q 0,-1.04847 -0.47182,-1.57272 -0.47181,-0.54171 -1.59021,-0.54171 -1.41544,0 -2.51635,0.75142 z m 8.47525,7.00735 v -12.35463 h 1.38051 v 12.35463 z"
       id="text3-9"
       aria-label="digital" />
    <rect
       style="fill:#000000;stroke:none;stroke-width:7.84802;stroke-linejoin:round"
       id="rect4-3"
       width="79.266266"
       height="2.3531551"
       x="49.477085"
       y="170.02252" />
    <rect
       style="fill:#000000;stroke:none;stroke-width:7.84802;stroke-linejoin:round"
       id="rect2-9"
       width="79.266266"
       height="2.3531551"
       x="181.87747"
       y="170.02252" />
  </g>
</svg>
